<svg xmlns="http://www.w3.org/2000/svg" width="500" height="500" viewBox="0 0 500 500" fill="none">
  <rect width="500" height="500" fill="none"/>
  <rect x="100" y="100" width="300" height="300" rx="20" fill="#ffffff" stroke="#ffffff" stroke-width="10"/>
  <rect x="120" y="140" width="260" height="220" rx="10" fill="#f8f9fa"/>
  <rect x="150" y="170" width="60" height="60" rx="5" fill="#e9ecef"/>
  <rect x="220" y="170" width="60" height="60" rx="5" fill="#e9ecef"/>
  <rect x="290" y="170" width="60" height="60" rx="5" fill="#e9ecef"/>
  <rect x="150" y="240" width="60" height="60" rx="5" fill="#e9ecef"/>
  <rect x="220" y="240" width="60" height="60" rx="5" fill="#e9ecef"/>
  <rect x="290" y="240" width="60" height="60" rx="5" fill="#e9ecef"/>
  <circle cx="180" cy="200" r="15" fill="#dc3545"/>
  <circle cx="250" cy="270" r="15" fill="#0d6efd"/>
  <rect x="140" y="120" width="220" height="30" rx="5" fill="#ffffff"/>
  <rect x="150" y="130" width="40" height="10" rx="2" fill="#0d6efd"/>
  <rect x="200" y="130" width="40" height="10" rx="2" fill="#0d6efd"/>
  <rect x="250" y="130" width="40" height="10" rx="2" fill="#0d6efd"/>
  <rect x="300" y="130" width="40" height="10" rx="2" fill="#0d6efd"/>
</svg>